P3
10 10
 255
 0 0 115  1 1 115  2 2 115  3 3 115  4 4 115  5 5 115  6 6 115  7 7 115  8 8 115  9 9 115  10 10 115  11 11 115  12 12 115  13 13 115  14 14 115  15 15 115  16 16 115  17 17 115  18 18 115  19 19 115  20 20 115  21 21 115  22 22 115  23 23 115  24 24 115  25 25 115  26 26 115  27 27 115  28 28 115  29 29 115  30 30 115  31 31 115  32 32 115  33 33 115  34 34 115  35 35 115  36 36 115  37 37 115  38 38 115  39 39 115  40 40 115  41 41 115  42 42 115  43 43 115  44 44 115  45 45 115  46 46 115  47 47 115  48 48 115  49 49 115  50 50 115  51 51 115  52 52 115  53 53 115  54 54 115  55 55 115  56 56 115  57 57 115  58 58 115  59 59 115  60 60 115  61 61 115  62 62 115  63 63 115  64 64 115  65 65 115  66 66 115  67 67 115  68 68 115  69 69 115  70 70 115  71 71 115  72 72 115  73 73 115  74 74 115  75 75 115  76 76 115  77 77 115  78 78 115  79 79 115  80 80 115  81 81 115  82 82 115  83 83 115  84 84 115  85 85 115  86 86 115  87 87 115  88 88 115  89 89 115  90 90 115  91 91 115  92 92 115  93 93 115  94 94 115  95 95 115  96 96 115  97 97 115  98 98 115  99 99 115
