P3
50 50
255
223 82 34 94 66 60 32 70 193 109 129 97 119 247 51 7 220 240 234 231 30 11 175 1 118 18 216 85 97 88 76 150 211 241 98 237 229 24 6 212 123 133 179 26 91 110 135 243 177 216 162 165 24 190 41 104 167 242 149 57 104 49 90 177 205 85 54 246 34 234 23 177 69 6 213 29 121 186 4 82 243 210 108 207 110 117 14 0 45 207 200 245 132 135 203 121 122 69 251 82 74 125 95 83 65 219 139 62 56 159 116 38 234 135 54 53 164 110 163 201 173 0 81 27 130 156 110 74 111 186 110 150 93 109 212 14 199 178 62 250 58 111 179 228 205 231 72 19 207 144 
235 216 106 79 64 95 188 250 99 221 194 250 251 28 124 238 113 226 31 156 90 192 20 84 101 18 55 19 45 108 250 96 78 39 158 182 86 7 67 91 47 29 104 67 92 248 189 218 55 140 123 190 27 90 39 95 70 19 232 45 5 125 220 24 239 120 134 16 3 238 196 142 225 67 188 233 188 149 160 91 149 132 119 90 233 87 61 90 148 200 201 146 28 110 64 166 71 9 3 130 196 124 71 50 43 81 69 205 137 129 35 233 69 23 68 15 89 122 174 44 50 5 93 76 111 224 2 178 26 198 241 43 143 123 141 162 238 34 79 0 206 198 110 126 206 47 94 93 249 139 
20 161 75 224 174 129 172 116 162 206 77 143 125 198 249 86 146 72 112 106 61 14 224 29 182 33 24 187 151 217 18 83 86 36 42 221 19 197 59 194 120 145 4 103 153 112 89 79 87 121 226 70 115 74 212 144 150 63 218 67 217 72 182 98 10 14 106 162 35 125 54 43 230 91 18 192 8 9 147 202 2 172 59 172 104 4 201 52 197 195 189 75 196 19 94 121 198 29 37 139 171 141 3 102 239 57 94 99 13 146 45 160 251 58 106 152 93 147 44 171 78 58 42 175 203 17 108 9 231 122 8 153 73 237 107 236 82 1 180 67 65 98 238 81 74 210 70 85 103 21 
142 110 134 196 113 248 58 250 81 121 213 231 106 106 32 87 69 27 50 246 243 58 152 209 192 146 108 4 94 172 165 160 42 101 23 144 100 186 251 4 36 74 160 165 121 73 250 127 108 235 195 27 91 119 131 178 111 73 165 186 106 198 245 124 120 162 218 244 21 225 53 67 218 37 15 237 55 101 112 220 164 235 172 95 216 2 51 45 113 12 159 38 122 33 106 64 21 155 185 149 41 89 236 26 77 229 222 231 10 212 2 252 230 133 210 20 160 63 123 74 109 223 142 223 71 136 221 64 117 38 239 179 226 25 78 191 211 156 249 169 67 2 145 106 245 54 61 204 16 254 
1 121 202 237 228 40 242 206 241 243 249 151 203 150 69 234 246 26 138 204 227 216 156 247 222 178 42 220 113 247 142 13 127 39 83 41 91 0 53 118 139 46 191 91 52 216 2 16 45 73 86 190 136 254 197 204 143 168 72 94 148 100 91 249 225 14 214 212 6 168 192 210 225 232 208 233 167 63 148 154 245 18 136 164 130 30 36 57 35 191 54 138 232 98 2 63 63 59 15 55 194 96 233 43 26 163 216 47 196 205 50 194 46 42 118 49 60 7 68 92 98 117 254 133 191 46 38 212 120 189 144 120 16 213 217 100 19 156 229 97 183 253 218 180 183 203 125 54 250 22 
92 8 13 208 169 27 145 7 89 24 54 233 181 220 47 194 194 74 54 228 148 94 119 52 148 208 223 130 188 239 138 178 18 4 11 35 218 19 32 151 148 98 209 236 114 185 249 119 192 196 36 16 172 204 241 56 211 173 187 143 240 184 249 202 255 144 28 74 36 251 23 233 213 126 134 243 147 235 202 11 188 70 50 233 48 162 184 206 46 217 235 252 44 160 225 221 238 49 247 183 75 57 92 214 83 178 65 63 56 123 221 104 78 51 154 117 177 24 137 59 202 30 41 123 245 216 180 246 255 11 29 115 135 66 239 50 16 9 132 30 255 68 229 0 75 32 19 117 115 155 
85 40 157 125 32 13 54 85 68 214 108 71 81 76 42 198 5 98 74 9 153 22 146 99 221 20 205 98 210 88 87 143 63 132 216 35 62 195 138 90 59 107 77 166 78 110 163 109 50 46 182 64 93 206 164 121 141 75 219 145 215 9 3 253 72 226 89 157 151 47 153 92 208 127 191 235 194 231 59 57 62 126 0 110 165 7 87 37 73 243 102 134 47 223 105 207 105 115 33 29 88 34 14 120 214 114 196 190 161 76 89 110 237 14 128 188 130 67 61 203 98 92 106 242 73 128 100 228 203 0 29 38 187 139 113 21 249 102 70 224 49 233 242 57 84 238 254 106 20 6 
162 213 42 55 154 186 62 237 63 210 8 81 81 12 249 113 128 145 49 131 113 19 202 194 183 37 7 177 149 10 213 22 123 87 172 75 96 209 81 214 85 133 242 29 133 192 224 167 213 193 215 145 180 244 68 58 58 45 83 96 150 199 45 19 53 158 10 123 255 5 99 173 73 62 84 234 61 35 222 225 100 55 209 151 50 174 201 39 167 194 202 32 217 128 247 97 228 169 220 194 154 217 154 167 163 237 60 39 55 251 69 65 153 172 110 226 16 163 198 199 124 1 243 149 219 105 146 189 232 221 113 255 239 88 38 71 219 106 144 107 38 52 255 215 107 185 191 210 49 187 
80 158 234 177 55 15 154 63 32 105 58 170 197 214 180 210 31 183 101 252 208 49 208 98 206 97 98 124 38 214 65 188 217 72 185 90 68 67 52 28 82 107 6 3 126 135 58 89 249 148 48 109 196 36 3 251 17 103 187 182 253 182 132 42 157 174 89 73 114 82 204 78 32 197 39 2 31 81 169 31 217 55 109 181 185 80 192 202 21 187 241 149 215 99 142 170 168 73 202 248 118 26 177 51 154 142 210 207 152 57 247 78 71 111 84 209 111 50 154 152 136 183 212 212 193 31 204 163 139 34 64 130 139 25 172 10 178 205 126 141 13 89 162 135 206 106 176 94 38 102 
18 98 69 59 203 83 63 7 240 30 41 200 148 121 112 101 40 230 186 57 183 206 210 228 227 201 11 170 179 123 7 94 104 7 2 250 72 71 201 222 126 38 235 117 23 197 220 117 195 196 199 201 192 153 5 244 116 79 148 134 221 115 250 46 191 74 63 108 218 99 4 112 192 173 235 14 15 212 132 109 170 149 129 4 131 243 166 39 251 161 177 171 216 243 238 105 201 51 238 194 66 199 208 96 197 235 17 31 140 78 180 173 5 50 130 243 79 112 35 69 53 216 200 133 255 1 188 217 37 89 173 25 239 32 208 56 245 52 181 187 94 12 144 191 59 114 120 200 111 133 
147 113 114 199 53 184 101 170 93 215 83 147 11 105 173 75 53 89 64 199 58 128 163 9 217 99 213 44 238 92 15 247 21 135 238 66 53 200 124 64 171 111 99 19 182 63 144 61 29 172 57 131 82 116 1 95 159 158 247 188 253 224 101 162 162 183 162 64 243 114 9 32 140 73 35 216 192 95 248 47 151 213 199 116 248 113 164 252 244 36 243 236 153 225 49 201 69 94 170 217 174 65 67 245 208 165 107 196 240 161 77 191 206 171 31 56 195 90 31 116 218 177 252 89 35 130 70 5 205 209 36 104 98 120 197 192 50 198 70 73 128 46 95 255 211 44 215 207 59 77 
211 245 110 60 59 141 107 187 141 169 25 34 245 88 49 180 252 12 124 212 166 85 39 4 126 252 197 97 19 173 231 219 241 154 199 22 68 179 199 136 194 117 103 119 13 77 10 121 24 88 178 208 35 232 130 226 215 241 248 101 124 182 53 167 250 139 226 241 99 57 4 204 150 173 197 233 200 168 229 85 44 207 197 65 99 146 112 189 34 83 118 33 137 85 226 25 46 214 243 193 67 172 29 142 97 171 77 210 66 233 13 105 222 100 83 253 33 114 179 178 221 95 20 162 56 132 25 60 237 208 49 178 103 82 199 189 117 108 203 11 20 116 74 156 227 9 101 137 48 24 
88 200 88 216 164 229 69 70 182 165 49 127 139 249 174 79 157 35 13 243 225 34 146 20 142 245 236 0 16 115 72 43 187 84 7 216 89 103 95 104 216 91 107 160 1 232 86 13 71 203 230 140 54 40 43 68 170 71 20 129 31 97 17 109 117 6 159 226 40 168 108 67 82 96 136 189 209 82 165 236 242 101 36 150 133 110 173 209 152 50 137 148 64 140 219 37 80 78 130 216 144 100 226 32 23 185 150 118 71 218 207 76 153 85 190 120 135 33 124 162 56 50 126 167 149 116 0 3 50 241 223 69 182 53 73 89 135 200 8 179 16 215 126 178 213 47 150 249 250 190 
186 82 132 33 159 1 64 131 194 47 4 198 66 97 162 54 60 218 103 82 200 139 226 158 54 187 47 129 227 140 143 248 187 18 15 9 190 189 160 71 85 41 16 189 217 80 254 126 80 207 78 113 107 110 151 233 85 42 17 169 76 165 173 72 211 170 88 46 45 194 235 114 202 197 186 132 251 221 134 71 61 162 4 60 178 75 180 135 76 30 1 223 147 23 129 108 12 235 13 228 155 65 80 182 3 221 68 44 152 54 161 37 219 184 209 1 252 251 65 111 159 31 39 204 21 184 45 17 155 239 18 55 10 191 231 153 155 159 17 54 0 12 204 21 178 86 173 13 122 147 
115 198 94 248 174 233 220 62 124 240 149 238 112 2 71 160 93 45 181 47 110 82 234 186 60 139 46 211 40 217 104 179 81 123 116 79 196 161 27 107 88 163 11 17 158 147 8 56 76 143 5 61 60 47 213 56 218 36 94 99 205 118 84 112 42 9 156 52 49 9 46 180 156 103 165 21 200 209 158 223 98 168 153 215 77 181 207 242 138 183 126 218 221 98 204 89 217 139 36 160 126 40 144 189 41 74 226 248 253 187 250 215 70 200 88 140 138 19 8 56 229 216 108 7 100 162 78 107 226 78 230 56 8 134 92 41 188 157 230 149 214 211 60 198 84 15 187 214 85 48 
19 233 51 142 78 242 69 78 51 250 190 41 184 21 161 18 19 242 92 125 136 113 9 119 195 248 49 39 202 42 169 253 27 93 130 143 168 133 21 252 245 234 201 195 148 237 46 187 18 10 121 241 133 44 68 10 219 41 131 228 91 204 153 185 115 214 160 15 195 54 160 255 60 242 17 189 145 63 181 25 7 220 192 168 192 166 118 194 160 245 65 190 121 71 239 14 124 121 36 205 164 191 190 100 119 12 253 17 3 6 88 68 118 224 114 4 160 109 177 168 150 216 128 88 153 157 198 53 199 223 65 135 26 143 209 161 80 0 218 102 39 203 0 255 79 63 24 9 239 220 
230 74 19 142 147 162 245 11 171 112 247 126 3 252 41 226 217 79 142 187 103 63 156 151 236 180 229 91 71 183 230 196 90 165 161 43 219 88 230 154 78 153 81 55 33 214 48 76 26 154 101 65 84 212 113 68 251 35 50 212 199 174 25 46 19 72 19 141 209 193 207 214 219 57 94 232 68 222 90 187 122 231 53 90 108 140 152 87 123 227 33 80 62 29 157 73 48 16 211 186 83 156 156 189 153 209 137 165 68 3 174 212 204 22 64 182 68 45 81 252 46 99 121 104 243 60 227 196 112 39 223 29 31 42 155 231 194 45 38 27 83 217 184 10 123 186 55 102 73 206 
138 162 19 13 55 231 87 29 24 2 217 32 8 41 187 207 221 119 251 233 207 232 223 43 103 142 69 188 218 105 53 61 14 130 76 112 222 253 190 114 237 214 195 45 177 237 217 151 209 24 210 25 42 202 117 153 36 240 71 44 40 248 194 234 118 238 31 87 248 153 118 95 224 117 151 244 49 107 205 145 187 40 185 10 226 168 150 33 51 12 56 111 7 48 103 242 18 176 246 117 251 165 119 248 217 250 179 80 169 180 207 152 37 178 248 51 38 42 191 145 198 40 85 150 27 66 177 148 171 167 237 92 65 82 68 227 14 20 145 148 3 182 119 212 193 13 157 164 38 1 
0 45 187 255 45 112 49 251 206 24 57 110 148 12 135 11 26 185 3 225 69 225 90 204 11 170 231 178 229 83 203 52 142 172 114 95 142 150 0 194 249 143 202 189 158 11 21 114 105 1 13 32 115 169 141 106 250 238 199 143 41 82 167 225 227 124 42 129 33 84 216 211 3 252 75 157 83 123 206 21 43 65 142 127 118 141 23 2 140 222 118 184 177 241 131 209 50 8 214 166 150 26 251 113 238 76 79 19 57 119 62 33 127 149 83 239 38 155 104 243 70 186 119 89 95 154 20 253 69 123 72 20 109 164 222 30 154 137 59 55 202 17 207 228 2 71 9 249 103 81 
5 186 141 179 120 106 113 37 97 245 26 237 162 31 232 234 219 108 211 239 118 207 235 153 14 113 113 102 195 223 113 229 99 205 15 22 112 140 165 136 32 194 129 53 48 219 79 90 161 47 84 233 50 40 129 57 94 44 163 198 102 97 122 69 218 62 6 253 88 59 43 82 221 21 82 153 48 140 214 2 43 16 92 236 55 11 166 137 84 126 55 67 121 198 121 28 166 249 107 6 135 36 136 119 169 75 67 235 152 233 140 47 124 55 15 151 98 105 243 5 36 227 4 118 234 94 20 162 57 4 102 27 195 205 49 6 101 177 46 158 168 164 153 140 65 145 103 99 109 126 
44 56 203 254 120 26 16 139 117 95 55 82 191 212 52 189 46 95 188 9 179 61 61 167 231 80 40 36 245 81 200 173 177 74 197 64 2 32 151 201 93 89 108 221 12 186 4 17 107 193 92 2 177 161 120 58 177 116 24 81 0 46 217 218 32 173 248 178 165 164 76 176 226 142 227 69 33 38 21 215 3 144 154 203 125 48 223 145 23 248 60 113 68 174 117 222 202 187 43 30 50 158 132 80 197 244 198 186 210 160 194 80 151 186 75 102 132 113 54 248 117 211 26 195 195 234 32 20 44 28 173 110 107 185 79 192 42 217 232 194 83 235 25 224 138 98 132 239 38 147 
158 110 87 239 114 84 209 223 4 138 250 77 234 54 58 50 177 187 47 192 176 155 214 209 27 191 134 192 30 114 185 213 149 121 127 80 109 40 113 45 138 86 42 64 94 154 163 138 101 175 207 200 152 202 71 253 36 166 92 13 232 120 195 221 248 21 152 202 194 221 247 181 139 144 182 56 208 12 87 69 105 187 22 117 43 51 134 236 124 243 167 85 118 216 248 92 190 76 2 83 122 159 8 205 130 20 22 209 106 60 149 88 158 223 9 77 185 242 241 32 214 222 63 242 140 27 62 106 110 67 41 56 191 201 203 243 102 60 115 16 237 6 208 181 205 214 62 1 195 205 
0 136 84 31 91 254 157 233 46 155 75 31 229 108 45 186 84 240 234 78 93 11 77 100 138 38 70 221 90 219 13 174 31 101 251 106 154 197 64 251 219 254 213 44 100 250 176 47 234 216 65 1 232 190 199 199 121 180 254 15 96 190 248 37 173 33 35 85 48 138 82 211 20 62 225 249 63 121 35 178 67 51 215 6 182 89 204 197 156 94 132 55 244 24 158 138 49 94 154 22 238 225 74 111 247 142 253 106 144 61 73 144 17 253 190 7 147 67 55 240 32 31 49 10 87 79 185 5 6 248 92 248 213 53 142 219 137 9 38 60 40 112 113 133 240 207 65 113 48 34 
246 109 160 129 100 103 145 199 53 231 247 254 26 49 6 80 70 21 49 163 179 119 102 147 60 196 161 222 240 95 123 78 78 121 109 153 9 112 169 191 182 19 180 209 129 187 48 247 158 43 71 13 88 196 255 139 186 253 254 9 126 192 45 15 21 134 249 123 144 181 9 144 194 48 100 26 252 249 136 191 55 17 85 203 145 90 103 182 132 138 239 90 51 61 240 228 209 216 111 3 95 247 36 60 75 229 98 143 29 43 15 92 137 19 100 125 191 251 102 240 249 25 2 60 166 202 6 235 188 188 216 188 67 85 66 95 140 102 143 198 14 239 240 161 235 95 91 43 29 17 
52 38 177 136 30 30 43 56 54 244 225 222 46 236 130 191 239 135 190 153 6 206 203 244 156 36 146 82 38 81 83 233 42 166 190 236 165 231 235 97 177 200 202 151 36 224 92 112 155 209 10 203 70 209 39 169 180 110 157 42 61 53 67 220 78 73 244 143 91 39 207 186 58 148 99 70 3 143 232 54 30 86 226 230 247 79 154 84 215 93 200 94 142 143 228 18 148 154 154 91 22 222 140 47 7 200 202 241 43 178 250 115 205 251 196 8 54 167 111 124 89 81 223 102 236 247 59 153 223 23 225 34 1 96 220 231 169 62 219 51 223 32 217 63 78 237 24 6 39 120 
150 71 71 200 253 50 0 197 191 8 217 106 2 170 105 59 221 40 245 243 75 137 73 127 228 13 103 201 168 168 140 101 146 111 113 186 47 99 247 101 22 218 205 80 0 10 111 147 127 174 169 40 108 56 11 17 146 170 99 126 232 127 85 82 121 175 81 209 222 195 1 41 13 188 215 147 191 2 29 101 111 79 106 6 115 167 254 139 238 113 82 122 85 117 59 11 22 30 191 142 153 153 106 241 251 105 228 183 59 30 176 170 34 156 234 134 57 149 61 87 134 141 179 237 248 131 25 183 172 248 86 137 78 55 240 226 4 226 243 225 68 205 141 0 46 24 8 91 95 189 
124 239 82 200 87 232 228 105 107 214 168 159 121 16 224 93 111 92 59 177 241 176 16 202 74 126 56 124 120 74 214 216 212 38 123 93 28 189 156 184 141 243 55 233 66 93 206 193 149 237 129 181 144 63 66 203 214 141 173 20 117 217 80 189 114 234 254 246 121 56 230 0 126 82 107 149 181 255 157 101 136 154 15 207 147 189 114 144 48 136 189 204 54 99 113 185 30 232 198 227 19 133 239 13 51 162 38 127 182 36 76 58 45 29 120 230 140 4 127 60 255 143 117 138 108 18 85 239 211 60 170 121 211 176 124 40 164 121 131 194 129 196 148 128 161 71 240 24 147 169 
30 78 182 238 96 111 100 106 185 101 68 128 228 238 59 155 125 230 247 135 34 253 105 134 57 28 111 243 80 29 135 107 244 1 105 164 228 206 122 128 71 154 154 91 238 5 23 179 27 184 83 226 150 142 112 97 132 121 174 80 49 44 20 46 13 93 94 80 202 51 68 134 144 63 139 148 40 97 94 9 175 40 131 174 233 46 19 70 102 237 230 255 108 124 148 149 168 2 163 151 220 143 247 247 62 188 94 222 172 112 38 97 11 153 119 20 81 104 239 168 55 5 13 171 241 225 194 17 255 182 56 114 33 130 33 137 93 198 126 206 57 147 255 61 83 131 156 69 134 117 
134 40 129 67 50 210 23 206 33 244 15 130 0 221 51 174 185 33 218 198 184 193 78 24 112 176 152 56 206 8 47 174 142 73 76 161 43 46 84 224 196 164 32 115 175 22 59 16 28 38 75 157 1 206 171 52 143 92 81 87 200 154 198 212 169 45 221 211 83 12 136 24 144 246 210 10 126 139 59 209 77 43 164 153 55 130 234 216 5 102 104 90 198 100 117 248 167 20 215 30 235 201 2 157 2 218 93 158 238 8 214 122 168 92 207 96 128 66 19 247 142 115 250 250 100 184 24 210 129 47 168 97 245 149 210 15 24 255 84 162 202 174 200 100 72 142 77 195 248 170 
111 165 45 150 140 83 243 140 68 81 34 227 28 145 212 65 3 202 242 127 215 212 4 59 152 98 214 88 164 125 3 216 113 251 144 214 2 134 124 79 160 36 144 162 248 54 132 74 191 164 99 108 183 214 202 160 60 2 123 148 9 223 176 138 230 231 217 168 197 201 68 25 194 92 132 31 97 13 81 78 235 11 116 236 140 4 177 122 195 200 231 195 37 188 57 80 28 140 172 80 131 2 99 254 165 239 112 128 205 181 196 121 169 244 215 27 35 179 249 172 115 207 148 245 192 75 16 2 248 59 72 69 112 131 180 52 12 138 75 75 110 67 61 124 11 208 181 149 255 176 
137 77 103 181 96 28 135 173 220 49 6 250 153 78 16 255 178 211 196 80 36 113 174 9 112 111 248 108 29 187 80 227 8 38 64 128 133 94 233 223 201 238 67 174 250 27 171 164 80 190 199 40 18 228 1 20 37 236 106 12 178 253 26 90 145 106 193 3 12 249 176 56 151 103 205 95 87 212 77 170 118 154 195 97 220 121 55 203 122 117 10 108 136 146 166 140 109 121 89 240 212 77 57 20 50 200 253 228 178 69 104 50 9 4 125 72 206 51 44 72 42 107 141 155 200 21 159 66 5 20 192 34 87 120 233 175 85 77 144 187 243 106 17 121 219 147 222 131 70 118 
23 123 165 28 53 145 29 228 31 187 209 244 91 54 34 52 120 97 239 173 67 178 184 22 253 128 247 63 72 92 179 83 188 5 216 168 51 4 51 68 160 98 32 125 38 179 198 57 222 117 205 41 220 43 202 67 202 194 252 171 247 50 187 216 80 141 49 243 80 136 12 153 76 38 68 161 26 254 24 17 180 42 20 247 108 244 153 225 54 91 26 163 124 99 115 249 222 81 160 226 210 233 121 172 42 137 187 55 151 179 18 4 226 154 56 248 238 203 232 16 173 43 199 27 245 148 107 25 159 190 210 78 70 141 80 25 73 238 204 176 234 26 223 10 213 216 196 239 28 187 
28 5 204 181 18 80 44 119 45 10 55 143 218 111 229 182 250 19 131 108 167 89 107 214 126 82 11 195 27 30 19 8 47 14 77 110 177 71 197 204 238 25 89 231 188 139 136 234 91 36 225 57 142 193 204 181 32 56 177 22 106 174 94 25 30 190 194 126 1 89 210 106 214 142 145 152 109 182 149 70 38 30 39 191 227 136 129 176 214 161 5 220 246 251 38 67 167 232 149 34 107 93 222 234 60 57 195 168 206 63 112 166 84 132 221 79 46 203 243 163 156 78 26 96 116 124 206 175 175 100 112 146 50 65 98 149 76 206 248 74 211 200 189 126 19 31 130 158 35 187 
161 146 156 130 90 252 122 187 44 96 23 98 147 76 8 14 124 131 62 19 123 34 65 202 240 4 181 225 102 220 217 237 37 221 199 82 57 6 82 214 24 87 238 180 254 38 251 208 16 65 157 132 91 231 159 80 94 231 42 48 134 81 92 196 52 205 131 76 178 8 174 49 180 186 137 116 153 120 217 59 83 79 68 107 140 117 206 125 100 170 252 92 149 133 161 147 240 175 51 17 136 221 24 122 33 220 65 2 1 206 21 56 129 231 29 23 134 144 129 113 187 183 89 141 15 219 243 203 12 203 239 8 193 77 223 67 37 49 238 233 202 204 224 153 116 60 59 108 30 40 
91 57 57 70 198 99 40 123 33 93 65 199 141 124 40 41 247 122 125 244 137 172 0 203 72 74 3 24 121 77 19 183 237 11 71 10 204 239 188 57 164 96 60 97 200 128 84 219 44 71 144 190 180 145 193 33 215 222 2 194 109 83 70 247 138 208 43 242 126 118 166 200 233 16 185 166 173 17 65 8 109 17 62 8 247 138 151 148 150 129 211 137 133 29 204 140 207 46 105 99 43 246 184 127 247 37 254 88 170 95 213 165 139 171 20 11 174 132 18 197 40 74 33 44 11 43 221 221 237 92 247 18 245 253 251 162 127 141 159 227 58 195 182 55 173 180 118 91 187 224 
157 178 95 163 74 12 2 209 63 147 72 72 239 167 8 157 226 252 139 49 109 8 167 55 200 29 224 91 64 86 149 176 92 76 18 138 227 56 142 164 34 183 193 58 214 45 182 12 28 175 253 42 129 2 230 25 142 235 95 168 171 48 53 111 234 98 230 119 148 65 111 138 145 3 107 231 14 144 193 38 7 166 13 136 82 240 85 94 155 85 234 158 11 211 160 194 227 100 194 155 75 80 216 70 252 134 124 135 228 209 104 68 60 251 222 246 226 135 221 121 17 85 255 3 129 234 62 187 39 235 19 242 244 158 141 231 248 85 122 219 134 151 254 168 223 11 3 15 92 216 
133 189 137 208 215 126 213 34 253 157 146 6 58 208 250 34 193 96 159 2 227 237 142 149 67 70 42 241 252 243 210 174 82 117 176 60 123 24 129 247 172 222 92 105 88 229 188 67 239 181 255 29 101 116 116 158 128 142 143 163 91 121 223 114 76 84 60 248 156 247 97 65 238 98 123 90 127 51 166 177 200 179 78 92 84 0 114 9 184 247 150 46 173 112 22 66 245 172 7 49 47 7 72 202 5 82 35 73 120 251 202 249 191 223 243 240 94 128 202 252 141 116 124 48 74 233 173 110 33 253 213 147 235 127 46 193 96 138 143 7 212 187 63 167 150 159 170 104 30 122 
122 148 177 71 222 178 89 242 204 30 42 252 106 60 144 1 215 153 90 21 46 47 255 161 99 251 151 180 174 123 234 4 196 80 157 13 59 30 111 70 72 0 119 198 131 251 159 61 2 67 207 131 205 255 234 240 191 145 246 46 25 29 45 103 219 232 92 133 127 184 190 92 127 120 180 156 1 102 11 28 15 2 82 138 108 125 120 69 105 67 141 66 213 209 156 195 35 57 231 252 214 141 69 33 103 121 177 159 2 91 129 23 207 249 20 97 220 166 156 201 221 60 203 49 27 135 83 77 97 255 121 191 140 34 127 232 111 101 0 56 14 9 196 219 193 199 7 226 101 23 
140 22 17 30 13 216 61 34 59 207 237 130 169 207 248 57 148 255 243 166 246 183 244 114 9 148 59 147 189 26 80 116 28 232 72 2 254 128 90 77 249 107 66 81 176 247 122 140 180 28 139 237 131 205 157 78 202 129 3 182 24 179 187 52 234 37 31 197 177 161 231 133 250 230 216 49 209 27 178 134 68 158 153 174 112 130 76 148 245 9 242 76 160 232 32 46 124 144 204 70 110 50 240 116 255 68 122 27 240 172 81 55 56 54 55 239 221 68 62 188 144 152 101 121 243 196 14 118 96 252 135 214 120 19 161 141 232 144 255 255 247 241 15 71 190 230 117 252 79 134 
136 95 218 33 251 61 72 5 80 233 111 33 224 112 145 191 43 207 126 106 77 68 23 55 161 212 183 233 125 170 156 167 16 51 178 111 217 170 253 41 98 77 161 146 167 116 150 19 121 111 250 64 166 38 92 138 131 228 183 153 71 37 184 204 128 93 4 188 175 73 88 136 16 181 142 41 236 206 10 165 64 79 2 150 28 147 46 151 59 86 44 218 13 209 180 21 229 162 1 156 234 81 205 6 162 92 91 143 9 89 177 170 178 97 131 50 113 239 131 174 127 37 6 3 223 115 240 75 74 7 76 97 8 16 244 219 228 254 212 223 11 217 161 58 231 161 243 190 45 141 
88 61 222 48 159 44 92 32 13 238 203 152 172 19 43 89 200 11 29 242 150 192 90 27 135 224 232 148 241 59 165 35 226 66 155 70 160 16 39 246 48 143 28 79 241 163 206 230 7 2 27 191 19 108 124 148 51 146 187 57 107 60 126 15 137 22 246 111 7 142 175 223 154 225 54 220 3 72 152 199 131 126 200 20 72 102 58 34 218 9 46 72 116 131 116 30 18 131 176 90 242 188 104 244 168 12 54 4 196 102 90 47 158 119 60 246 105 42 171 127 217 46 50 110 197 152 140 184 75 36 203 52 66 149 82 62 68 148 10 54 41 76 114 33 106 238 24 143 149 16 
186 219 141 229 206 68 202 115 140 112 224 154 174 178 44 128 144 129 113 247 208 150 159 12 68 196 185 44 32 96 46 36 96 142 140 3 91 68 43 57 22 100 140 166 72 64 0 72 105 160 195 79 13 11 208 0 12 68 68 204 78 10 128 111 150 251 105 49 191 3 42 237 103 56 206 55 101 93 169 152 86 33 220 252 228 104 128 100 208 135 180 22 60 25 242 253 93 169 254 155 120 223 184 116 40 40 201 175 161 88 193 106 72 254 93 6 45 109 16 205 208 231 254 139 157 19 126 143 18 80 166 149 171 228 160 107 197 137 24 101 227 34 162 137 41 55 122 233 172 234 
169 110 196 0 99 168 248 187 206 124 23 44 152 120 96 255 136 17 245 171 139 91 29 122 233 223 89 250 10 114 61 40 87 119 3 88 3 130 222 126 18 222 127 177 9 7 117 218 114 203 132 27 193 126 255 15 147 200 143 186 142 193 2 245 121 197 83 15 227 45 68 45 95 94 59 157 89 222 107 110 15 215 3 246 191 36 123 32 8 104 214 19 176 71 155 186 191 237 4 94 182 100 66 130 140 209 93 149 77 1 203 159 94 108 67 142 121 210 129 236 21 109 125 99 79 40 86 80 128 36 205 131 166 145 199 120 236 252 39 87 64 208 115 209 216 249 214 80 177 5 
6 224 34 255 55 202 46 52 229 46 155 103 60 93 142 120 237 129 153 85 159 106 176 12 11 7 138 229 62 11 168 9 26 89 139 197 112 59 12 87 2 172 234 118 123 141 3 97 64 195 196 165 201 133 157 179 6 167 197 39 228 186 119 203 173 25 254 211 22 217 205 118 71 172 143 145 101 17 229 38 74 171 20 176 14 252 241 110 156 61 144 189 0 251 137 87 9 137 17 174 130 222 189 45 5 74 68 119 233 145 66 209 162 33 253 151 140 52 248 69 49 215 81 53 245 237 70 231 94 62 169 7 112 3 83 246 54 224 200 90 82 214 157 54 175 73 189 19 118 149 
220 97 43 147 32 113 246 255 33 116 236 218 46 235 77 26 190 51 183 59 56 33 85 141 142 8 127 72 20 212 187 17 82 85 218 217 241 105 253 222 42 77 229 232 10 181 94 166 17 112 243 8 205 66 185 73 147 126 245 72 113 34 160 205 55 20 122 116 255 159 168 51 163 94 184 197 243 56 151 51 194 6 120 241 199 78 13 11 253 201 71 238 115 56 167 83 86 29 112 116 39 90 114 254 212 38 52 230 32 233 211 255 194 15 209 68 20 62 166 167 145 250 178 142 124 238 87 251 82 191 12 248 57 51 178 214 134 113 209 204 99 80 67 212 141 199 137 146 249 94 
111 171 17 135 88 25 57 237 138 129 228 164 10 22 84 164 20 236 211 188 136 218 192 156 26 55 67 22 253 177 243 80 41 163 163 123 249 202 58 194 248 10 88 192 63 114 216 55 54 244 88 139 230 163 245 129 116 154 118 92 38 136 182 28 88 22 37 211 28 14 180 14 182 137 217 233 133 18 31 95 72 132 132 78 133 241 100 115 123 189 170 32 29 216 94 127 49 178 17 202 148 89 19 129 102 178 90 41 240 252 224 86 43 36 93 199 103 105 131 255 97 191 143 216 141 131 185 176 242 41 106 30 163 115 76 172 52 97 56 91 190 82 248 150 165 21 168 83 49 211 
254 138 225 230 68 11 117 164 181 214 94 32 231 252 65 153 233 35 125 193 253 147 123 14 100 231 151 9 152 91 192 204 160 151 204 67 178 164 171 99 151 111 147 84 74 144 151 2 195 112 146 181 148 234 202 108 10 109 95 205 156 68 49 59 162 27 57 38 252 80 12 254 3 231 3 251 133 75 124 69 44 197 77 153 88 67 29 147 48 46 246 45 184 52 59 96 194 247 112 79 142 153 22 28 55 147 65 39 140 44 80 129 127 116 224 158 88 94 58 103 208 171 52 12 37 241 169 60 204 203 219 23 85 45 190 64 95 253 36 117 103 55 82 185 180 244 252 236 148 246 
28 27 187 133 88 12 88 223 43 186 119 18 22 31 24 100 131 111 231 61 42 101 95 223 9 159 200 44 25 38 231 187 121 136 237 148 49 60 245 251 207 222 107 237 231 48 136 73 223 80 162 126 172 78 80 11 95 163 238 23 240 145 191 22 160 124 84 177 158 165 100 125 133 242 128 59 84 62 100 228 33 252 43 10 239 203 237 31 61 253 52 86 99 48 53 55 234 59 187 150 246 192 19 236 71 150 24 147 13 203 92 51 206 102 254 127 210 142 65 36 128 86 84 181 158 53 244 225 28 10 107 11 238 39 205 163 223 146 139 34 134 81 81 104 188 99 108 52 251 16 
244 42 88 152 105 70 17 171 234 123 132 200 223 167 98 251 217 108 3 73 244 198 207 167 127 245 53 178 104 234 254 225 210 204 139 77 41 159 124 65 212 148 229 218 31 89 33 19 167 221 224 19 49 65 70 154 121 49 23 247 244 72 230 170 73 165 62 216 134 226 147 20 72 205 23 21 63 96 158 53 59 216 34 86 85 224 101 161 121 86 78 7 95 176 185 108 210 244 203 210 190 64 240 119 76 208 251 0 56 42 53 147 157 129 199 205 247 55 188 36 202 71 161 171 15 60 217 9 49 144 196 14 218 234 133 113 95 165 81 181 45 140 214 7 72 253 114 194 72 150 
17 11 219 176 159 186 58 144 111 81 106 244 171 87 236 31 245 18 174 197 95 187 91 213 63 182 191 100 38 192 94 12 192 117 95 111 217 211 230 215 183 139 17 100 161 204 163 9 148 44 117 193 98 142 124 254 132 18 63 45 239 27 241 217 145 224 57 91 241 69 73 104 91 20 138 12 12 118 250 181 76 242 41 81 23 47 140 128 239 76 253 161 230 90 45 206 63 232 18 217 224 193 193 244 81 213 95 148 33 35 251 189 129 65 249 229 247 117 149 238 209 116 32 148 34 39 191 115 235 237 200 194 255 159 197 147 186 228 12 7 0 178 168 207 6 93 79 249 23 90 
