P3
3 3
255
 255 0  0    0  0  0    0  0  0   
 0  0   0    0 225 0    0  0  0    
 0  0   0    0  0  0    0 0 255

